<svg width="20" height="20" viewBox="0 0 20 20" fill="none" xmlns="http://www.w3.org/2000/svg">
<path d="M14.1667 8.33333C10.95 8.33333 8.33333 10.95 8.33333 14.1667C8.33333 17.3833 10.95 20 14.1667 20C17.3833 20 20 17.3833 20 14.1667C20 10.95 17.3833 8.33333 14.1667 8.33333ZM14.1667 18.3333C11.8692 18.3333 10 16.4642 10 14.1667C10 11.8692 11.8692 10 14.1667 10C16.4642 10 18.3333 11.8692 18.3333 14.1667C18.3333 16.4642 16.4642 18.3333 14.1667 18.3333ZM15 15V16.6667C15 16.8877 14.9122 17.0996 14.7559 17.2559C14.5996 17.4122 14.3877 17.5 14.1667 17.5C13.9457 17.5 13.7337 17.4122 13.5774 17.2559C13.4211 17.0996 13.3333 16.8877 13.3333 16.6667V15C13.3333 14.779 13.4211 14.567 13.5774 14.4107C13.7337 14.2545 13.9457 14.1667 14.1667 14.1667C14.3877 14.1667 14.5996 14.2545 14.7559 14.4107C14.9122 14.567 15 14.779 15 15ZM15.4167 12.0833C15.4166 12.2475 15.3842 12.4101 15.3213 12.5618C15.2584 12.7135 15.1663 12.8513 15.0501 12.9674C14.934 13.0835 14.7961 13.1755 14.6444 13.2383C14.4926 13.3011 14.33 13.3334 14.1658 13.3333C14.0016 13.3333 13.839 13.3009 13.6874 13.238C13.5357 13.1751 13.3979 13.083 13.2818 12.9668C13.1657 12.8506 13.0736 12.7128 13.0109 12.561C12.9481 12.4093 12.9158 12.2467 12.9158 12.0825C12.9159 11.7509 13.0478 11.4329 13.2824 11.1984C13.5169 10.964 13.835 10.8324 14.1667 10.8325C14.4983 10.8326 14.8163 10.9645 15.0507 11.199C15.2851 11.4336 15.4168 11.7517 15.4167 12.0833ZM7.5 18.3333H3.33333C2.41417 18.3333 1.66667 17.5858 1.66667 16.6667C1.66667 15.7475 2.41417 15 3.33333 15H5.83333C6.05435 15 6.26631 14.9122 6.42259 14.7559C6.57887 14.5996 6.66667 14.3877 6.66667 14.1667C6.66667 13.9457 6.57887 13.7337 6.42259 13.5774C6.26631 13.4211 6.05435 13.3333 5.83333 13.3333H5V1.66667H12.5C13.8783 1.66667 15 2.78833 15 4.16667V5.83333C15 6.05435 15.0878 6.26631 15.2441 6.42259C15.4004 6.57887 15.6123 6.66667 15.8333 6.66667C16.0543 6.66667 16.2663 6.57887 16.4226 6.42259C16.5789 6.26631 16.6667 6.05435 16.6667 5.83333V4.16667C16.6667 1.86917 14.7975 0 12.5 0H4.16667C1.87 0 0 1.86917 0 4.16667V16.6667C0 18.505 1.49583 20 3.33333 20H7.5C7.72101 20 7.93297 19.9122 8.08926 19.7559C8.24554 19.5996 8.33333 19.3877 8.33333 19.1667C8.33333 18.9457 8.24554 18.7337 8.08926 18.5774C7.93297 18.4211 7.72101 18.3333 7.5 18.3333ZM1.66667 4.16667C1.66667 3.08167 2.36583 2.165 3.33333 1.82V13.3333C2.72333 13.3333 2.15917 13.51 1.66667 13.7967V4.16667Z" fill="url(#paint0_linear_17550_4330)"/>
<defs>
<linearGradient id="paint0_linear_17550_4330" x1="0" y1="10" x2="20" y2="10" gradientUnits="userSpaceOnUse">
<stop stop-color="#1E293B"/>
<stop offset="1" stop-color="#2563EB"/>
</linearGradient>
</defs>
</svg>
